<svg width="400" height="400" viewBox="0 0 400 400" fill="none" xmlns="http://www.w3.org/2000/svg">
  <defs>
    <linearGradient id="bagGradient" x1="0%" y1="0%" x2="100%" y2="100%">
      <stop offset="0%" style="stop-color:#92400E;stop-opacity:1" />
      <stop offset="100%" style="stop-color:#A16207;stop-opacity:1" />
    </linearGradient>
    <linearGradient id="strapGradient" x1="0%" y1="0%" x2="100%" y2="100%">
      <stop offset="0%" style="stop-color:#78350F;stop-opacity:1" />
      <stop offset="100%" style="stop-color:#92400E;stop-opacity:1" />
    </linearGradient>
  </defs>
  
  <!-- Bag Body -->
  <rect x="150" y="120" width="100" height="120" rx="10" fill="url(#bagGradient)" stroke="#78350F" stroke-width="3"/>
  
  <!-- Bag Flap -->
  <path d="M150 120 Q200 100 250 120" stroke="url(#bagGradient)" stroke-width="20" stroke-linecap="round" fill="none"/>
  
  <!-- Bag Strap -->
  <path d="M170 130 Q200 110 230 130" stroke="url(#strapGradient)" stroke-width="8" stroke-linecap="round" fill="none"/>
  
  <!-- Bag Handle -->
  <ellipse cx="200" cy="110" rx="25" ry="8" fill="url(#strapGradient)" stroke="#78350F" stroke-width="2"/>
  
  <!-- Bag Details -->
  <rect x="170" y="140" width="60" height="80" rx="5" fill="#FCD34D" opacity="0.3"/>
  
  <!-- Zipper -->
  <rect x="160" y="125" width="80" height="3" fill="#374151"/>
  <circle cx="165" cy="126.5" r="2" fill="#6B7280"/>
  <circle cx="175" cy="126.5" r="2" fill="#6B7280"/>
  <circle cx="185" cy="126.5" r="2" fill="#6B7280"/>
  <circle cx="195" cy="126.5" r="2" fill="#6B7280"/>
  <circle cx="205" cy="126.5" r="2" fill="#6B7280"/>
  <circle cx="215" cy="126.5" r="2" fill="#6B7280"/>
  <circle cx="225" cy="126.5" r="2" fill="#6B7280"/>
  <circle cx="235" cy="126.5" r="2" fill="#6B7280"/>
  
  <!-- Stitching -->
  <path d="M160 140 L240 140" stroke="#78350F" stroke-width="1" fill="none" opacity="0.5"/>
  <path d="M160 160 L240 160" stroke="#78350F" stroke-width="1" fill="none" opacity="0.5"/>
  <path d="M160 180 L240 180" stroke="#78350F" stroke-width="1" fill="none" opacity="0.5"/>
  <path d="M160 200 L240 200" stroke="#78350F" stroke-width="1" fill="none" opacity="0.5"/>
  <path d="M160 220 L240 220" stroke="#78350F" stroke-width="1" fill="none" opacity="0.5"/>
</svg> 